<mxfile host="app.diagrams.net" modified="2022-06-08T22:49:05.575Z" agent="5.0 (Windows)" etag="JFZVYNLrEiGQ4uJwdVrq" version="19.0.3" type="github">
  <diagram id="C5RBs43oDa-KdzZeNtuy" name="Page-1">
    <mxGraphModel dx="1422" dy="752" grid="1" gridSize="10" guides="1" tooltips="1" connect="1" arrows="1" fold="1" page="1" pageScale="1" pageWidth="827" pageHeight="1169" math="0" shadow="0">
      <root>
        <mxCell id="WIyWlLk6GJQsqaUBKTNV-0" />
        <mxCell id="WIyWlLk6GJQsqaUBKTNV-1" parent="WIyWlLk6GJQsqaUBKTNV-0" />
        <mxCell id="jYKHolPtKf1FV6wMGU9G-25" value="Item" style="swimlane;fontStyle=2;align=center;verticalAlign=top;childLayout=stackLayout;horizontal=1;startSize=26;horizontalStack=0;resizeParent=1;resizeLast=0;collapsible=1;marginBottom=0;rounded=0;shadow=0;strokeWidth=1;" parent="WIyWlLk6GJQsqaUBKTNV-1" vertex="1">
          <mxGeometry x="855" y="423" width="160" height="180" as="geometry">
            <mxRectangle x="230" y="140" width="160" height="26" as="alternateBounds" />
          </mxGeometry>
        </mxCell>
        <mxCell id="jYKHolPtKf1FV6wMGU9G-60" value="Quantity" style="text;align=left;verticalAlign=top;spacingLeft=4;spacingRight=4;overflow=hidden;rotatable=0;points=[[0,0.5],[1,0.5]];portConstraint=eastwest;rounded=0;shadow=0;html=0;" parent="jYKHolPtKf1FV6wMGU9G-25" vertex="1">
          <mxGeometry y="26" width="160" height="26" as="geometry" />
        </mxCell>
        <mxCell id="jYKHolPtKf1FV6wMGU9G-61" value="Weight" style="text;align=left;verticalAlign=top;spacingLeft=4;spacingRight=4;overflow=hidden;rotatable=0;points=[[0,0.5],[1,0.5]];portConstraint=eastwest;rounded=0;shadow=0;html=0;" parent="jYKHolPtKf1FV6wMGU9G-25" vertex="1">
          <mxGeometry y="52" width="160" height="26" as="geometry" />
        </mxCell>
        <mxCell id="jYKHolPtKf1FV6wMGU9G-62" value="Due Date" style="text;align=left;verticalAlign=top;spacingLeft=4;spacingRight=4;overflow=hidden;rotatable=0;points=[[0,0.5],[1,0.5]];portConstraint=eastwest;rounded=0;shadow=0;html=0;" parent="jYKHolPtKf1FV6wMGU9G-25" vertex="1">
          <mxGeometry y="78" width="160" height="26" as="geometry" />
        </mxCell>
        <mxCell id="jYKHolPtKf1FV6wMGU9G-31" value="" style="line;html=1;strokeWidth=1;align=left;verticalAlign=middle;spacingTop=-1;spacingLeft=3;spacingRight=3;rotatable=0;labelPosition=right;points=[];portConstraint=eastwest;" parent="jYKHolPtKf1FV6wMGU9G-25" vertex="1">
          <mxGeometry y="104" width="160" height="26" as="geometry" />
        </mxCell>
        <mxCell id="jYKHolPtKf1FV6wMGU9G-32" value="available" style="text;align=left;verticalAlign=top;spacingLeft=4;spacingRight=4;overflow=hidden;rotatable=0;points=[[0,0.5],[1,0.5]];portConstraint=eastwest;" parent="jYKHolPtKf1FV6wMGU9G-25" vertex="1">
          <mxGeometry y="130" width="160" height="25" as="geometry" />
        </mxCell>
        <mxCell id="jYKHolPtKf1FV6wMGU9G-33" value="get_unit_price" style="text;align=left;verticalAlign=top;spacingLeft=4;spacingRight=4;overflow=hidden;rotatable=0;points=[[0,0.5],[1,0.5]];portConstraint=eastwest;" parent="jYKHolPtKf1FV6wMGU9G-25" vertex="1">
          <mxGeometry y="155" width="160" height="25" as="geometry" />
        </mxCell>
        <mxCell id="jYKHolPtKf1FV6wMGU9G-94" value="Order" style="swimlane;fontStyle=2;align=center;verticalAlign=top;childLayout=stackLayout;horizontal=1;startSize=26;horizontalStack=0;resizeParent=1;resizeLast=0;collapsible=1;marginBottom=0;rounded=0;shadow=0;strokeWidth=1;" parent="WIyWlLk6GJQsqaUBKTNV-1" vertex="1">
          <mxGeometry x="621" y="105" width="110" height="195" as="geometry">
            <mxRectangle x="230" y="140" width="160" height="26" as="alternateBounds" />
          </mxGeometry>
        </mxCell>
        <mxCell id="jYKHolPtKf1FV6wMGU9G-121" value="Quantity" style="text;align=left;verticalAlign=top;spacingLeft=4;spacingRight=4;overflow=hidden;rotatable=0;points=[[0,0.5],[1,0.5]];portConstraint=eastwest;rounded=0;shadow=0;html=0;" parent="jYKHolPtKf1FV6wMGU9G-94" vertex="1">
          <mxGeometry y="26" width="110" height="26" as="geometry" />
        </mxCell>
        <mxCell id="jYKHolPtKf1FV6wMGU9G-95" value="Date" style="text;align=left;verticalAlign=top;spacingLeft=4;spacingRight=4;overflow=hidden;rotatable=0;points=[[0,0.5],[1,0.5]];portConstraint=eastwest;" parent="jYKHolPtKf1FV6wMGU9G-94" vertex="1">
          <mxGeometry y="52" width="110" height="26" as="geometry" />
        </mxCell>
        <mxCell id="AAjWyqTiXaKeaJ9iyk1k-36" value="Payment" style="text;align=left;verticalAlign=top;spacingLeft=4;spacingRight=4;overflow=hidden;rotatable=0;points=[[0,0.5],[1,0.5]];portConstraint=eastwest;rounded=0;shadow=0;html=0;" parent="jYKHolPtKf1FV6wMGU9G-94" vertex="1">
          <mxGeometry y="78" width="110" height="26" as="geometry" />
        </mxCell>
        <mxCell id="jYKHolPtKf1FV6wMGU9G-107" value="Item" style="text;align=left;verticalAlign=top;spacingLeft=4;spacingRight=4;overflow=hidden;rotatable=0;points=[[0,0.5],[1,0.5]];portConstraint=eastwest;rounded=0;shadow=0;html=0;" parent="jYKHolPtKf1FV6wMGU9G-94" vertex="1">
          <mxGeometry y="104" width="110" height="26" as="geometry" />
        </mxCell>
        <mxCell id="jYKHolPtKf1FV6wMGU9G-100" value="" style="line;html=1;strokeWidth=1;align=left;verticalAlign=middle;spacingTop=-1;spacingLeft=3;spacingRight=3;rotatable=0;labelPosition=right;points=[];portConstraint=eastwest;" parent="jYKHolPtKf1FV6wMGU9G-94" vertex="1">
          <mxGeometry y="130" width="110" height="11" as="geometry" />
        </mxCell>
        <mxCell id="jYKHolPtKf1FV6wMGU9G-101" value="calc_price" style="text;align=left;verticalAlign=top;spacingLeft=4;spacingRight=4;overflow=hidden;rotatable=0;points=[[0,0.5],[1,0.5]];portConstraint=eastwest;" parent="jYKHolPtKf1FV6wMGU9G-94" vertex="1">
          <mxGeometry y="141" width="110" height="22" as="geometry" />
        </mxCell>
        <mxCell id="jYKHolPtKf1FV6wMGU9G-102" value="calc_weight" style="text;align=left;verticalAlign=top;spacingLeft=4;spacingRight=4;overflow=hidden;rotatable=0;points=[[0,0.5],[1,0.5]];portConstraint=eastwest;" parent="jYKHolPtKf1FV6wMGU9G-94" vertex="1">
          <mxGeometry y="163" width="110" height="25" as="geometry" />
        </mxCell>
        <mxCell id="AAjWyqTiXaKeaJ9iyk1k-30" style="edgeStyle=orthogonalEdgeStyle;rounded=0;orthogonalLoop=1;jettySize=auto;html=1;endArrow=diamondThin;endFill=0;" parent="WIyWlLk6GJQsqaUBKTNV-1" source="jYKHolPtKf1FV6wMGU9G-111" target="jYKHolPtKf1FV6wMGU9G-25" edge="1">
          <mxGeometry relative="1" as="geometry">
            <mxPoint x="930" y="510" as="targetPoint" />
            <Array as="points" />
          </mxGeometry>
        </mxCell>
        <mxCell id="AAjWyqTiXaKeaJ9iyk1k-31" value="1" style="edgeLabel;html=1;align=center;verticalAlign=middle;resizable=0;points=[];" parent="AAjWyqTiXaKeaJ9iyk1k-30" vertex="1" connectable="0">
          <mxGeometry x="-0.9779" y="1" relative="1" as="geometry">
            <mxPoint y="18" as="offset" />
          </mxGeometry>
        </mxCell>
        <mxCell id="AAjWyqTiXaKeaJ9iyk1k-32" value="*..1" style="edgeLabel;html=1;align=center;verticalAlign=middle;resizable=0;points=[];" parent="AAjWyqTiXaKeaJ9iyk1k-30" vertex="1" connectable="0">
          <mxGeometry x="0.9414" y="1" relative="1" as="geometry">
            <mxPoint y="-12" as="offset" />
          </mxGeometry>
        </mxCell>
        <mxCell id="AAjWyqTiXaKeaJ9iyk1k-33" value="browses" style="edgeLabel;html=1;align=center;verticalAlign=middle;resizable=0;points=[];" parent="AAjWyqTiXaKeaJ9iyk1k-30" vertex="1" connectable="0">
          <mxGeometry x="0.1656" y="-1" relative="1" as="geometry">
            <mxPoint y="-20" as="offset" />
          </mxGeometry>
        </mxCell>
        <mxCell id="jYKHolPtKf1FV6wMGU9G-111" value="Client" style="swimlane;fontStyle=2;align=center;verticalAlign=top;childLayout=stackLayout;horizontal=1;startSize=26;horizontalStack=0;resizeParent=1;resizeLast=0;collapsible=1;marginBottom=0;rounded=0;shadow=0;strokeWidth=1;" parent="WIyWlLk6GJQsqaUBKTNV-1" vertex="1">
          <mxGeometry x="880" y="104" width="110" height="196" as="geometry">
            <mxRectangle x="230" y="140" width="160" height="26" as="alternateBounds" />
          </mxGeometry>
        </mxCell>
        <mxCell id="jYKHolPtKf1FV6wMGU9G-112" value="Name" style="text;align=left;verticalAlign=top;spacingLeft=4;spacingRight=4;overflow=hidden;rotatable=0;points=[[0,0.5],[1,0.5]];portConstraint=eastwest;rounded=0;shadow=0;html=0;" parent="jYKHolPtKf1FV6wMGU9G-111" vertex="1">
          <mxGeometry y="26" width="110" height="26" as="geometry" />
        </mxCell>
        <mxCell id="jYKHolPtKf1FV6wMGU9G-113" value="Email" style="text;align=left;verticalAlign=top;spacingLeft=4;spacingRight=4;overflow=hidden;rotatable=0;points=[[0,0.5],[1,0.5]];portConstraint=eastwest;" parent="jYKHolPtKf1FV6wMGU9G-111" vertex="1">
          <mxGeometry y="52" width="110" height="20" as="geometry" />
        </mxCell>
        <mxCell id="AAjWyqTiXaKeaJ9iyk1k-8" value="Authenticated" style="text;align=left;verticalAlign=top;spacingLeft=4;spacingRight=4;overflow=hidden;rotatable=0;points=[[0,0.5],[1,0.5]];portConstraint=eastwest;" parent="jYKHolPtKf1FV6wMGU9G-111" vertex="1">
          <mxGeometry y="72" width="110" height="22" as="geometry" />
        </mxCell>
        <mxCell id="jYKHolPtKf1FV6wMGU9G-115" value="" style="line;html=1;strokeWidth=1;align=left;verticalAlign=middle;spacingTop=-1;spacingLeft=3;spacingRight=3;rotatable=0;labelPosition=right;points=[];portConstraint=eastwest;" parent="jYKHolPtKf1FV6wMGU9G-111" vertex="1">
          <mxGeometry y="94" width="110" height="11" as="geometry" />
        </mxCell>
        <mxCell id="jYKHolPtKf1FV6wMGU9G-118" value="Register" style="text;align=left;verticalAlign=top;spacingLeft=4;spacingRight=4;overflow=hidden;rotatable=0;points=[[0,0.5],[1,0.5]];portConstraint=eastwest;" parent="jYKHolPtKf1FV6wMGU9G-111" vertex="1">
          <mxGeometry y="105" width="110" height="22" as="geometry" />
        </mxCell>
        <mxCell id="jYKHolPtKf1FV6wMGU9G-119" value="Delete account" style="text;align=left;verticalAlign=top;spacingLeft=4;spacingRight=4;overflow=hidden;rotatable=0;points=[[0,0.5],[1,0.5]];portConstraint=eastwest;" parent="jYKHolPtKf1FV6wMGU9G-111" vertex="1">
          <mxGeometry y="127" width="110" height="22" as="geometry" />
        </mxCell>
        <mxCell id="jYKHolPtKf1FV6wMGU9G-120" value="Place order" style="text;align=left;verticalAlign=top;spacingLeft=4;spacingRight=4;overflow=hidden;rotatable=0;points=[[0,0.5],[1,0.5]];portConstraint=eastwest;" parent="jYKHolPtKf1FV6wMGU9G-111" vertex="1">
          <mxGeometry y="149" width="110" height="22" as="geometry" />
        </mxCell>
        <mxCell id="AAjWyqTiXaKeaJ9iyk1k-29" value="view item" style="text;align=left;verticalAlign=top;spacingLeft=4;spacingRight=4;overflow=hidden;rotatable=0;points=[[0,0.5],[1,0.5]];portConstraint=eastwest;" parent="jYKHolPtKf1FV6wMGU9G-111" vertex="1">
          <mxGeometry y="171" width="110" height="22" as="geometry" />
        </mxCell>
        <mxCell id="jYKHolPtKf1FV6wMGU9G-122" style="edgeStyle=orthogonalEdgeStyle;rounded=0;orthogonalLoop=1;jettySize=auto;html=1;startArrow=diamondThin;startFill=0;endArrow=none;endFill=0;exitX=1.016;exitY=0.527;exitDx=0;exitDy=0;exitPerimeter=0;" parent="WIyWlLk6GJQsqaUBKTNV-1" edge="1">
          <mxGeometry relative="1" as="geometry">
            <Array as="points">
              <mxPoint x="880" y="199" />
            </Array>
            <mxPoint x="731.0000000000001" y="198.86200000000002" as="sourcePoint" />
            <mxPoint x="880" y="199" as="targetPoint" />
          </mxGeometry>
        </mxCell>
        <mxCell id="jYKHolPtKf1FV6wMGU9G-124" value="1" style="edgeLabel;html=1;align=center;verticalAlign=middle;resizable=0;points=[];" parent="jYKHolPtKf1FV6wMGU9G-122" vertex="1" connectable="0">
          <mxGeometry x="0.7855" y="-1" relative="1" as="geometry">
            <mxPoint x="-11" y="-2" as="offset" />
          </mxGeometry>
        </mxCell>
        <mxCell id="jYKHolPtKf1FV6wMGU9G-125" value="*..1" style="edgeLabel;html=1;align=center;verticalAlign=middle;resizable=0;points=[];" parent="jYKHolPtKf1FV6wMGU9G-122" vertex="1" connectable="0">
          <mxGeometry x="-0.8094" y="-3" relative="1" as="geometry">
            <mxPoint x="12" y="-3" as="offset" />
          </mxGeometry>
        </mxCell>
        <mxCell id="jYKHolPtKf1FV6wMGU9G-126" value="Places" style="edgeLabel;html=1;align=center;verticalAlign=middle;resizable=0;points=[];" parent="jYKHolPtKf1FV6wMGU9G-122" vertex="1" connectable="0">
          <mxGeometry x="0.2004" y="1" relative="1" as="geometry">
            <mxPoint x="-25" y="-2" as="offset" />
          </mxGeometry>
        </mxCell>
        <mxCell id="AAjWyqTiXaKeaJ9iyk1k-9" value="Authentication" style="swimlane;fontStyle=2;align=center;verticalAlign=top;childLayout=stackLayout;horizontal=1;startSize=26;horizontalStack=0;resizeParent=1;resizeLast=0;collapsible=1;marginBottom=0;rounded=0;shadow=0;strokeWidth=1;" parent="WIyWlLk6GJQsqaUBKTNV-1" vertex="1">
          <mxGeometry x="1111" y="160" width="150" height="89" as="geometry">
            <mxRectangle x="230" y="140" width="160" height="26" as="alternateBounds" />
          </mxGeometry>
        </mxCell>
        <mxCell id="AAjWyqTiXaKeaJ9iyk1k-19" style="edgeStyle=orthogonalEdgeStyle;rounded=0;orthogonalLoop=1;jettySize=auto;html=1;entryX=-0.008;entryY=0.531;entryDx=0;entryDy=0;entryPerimeter=0;startArrow=diamondThin;startFill=0;endArrow=none;endFill=0;exitX=1.016;exitY=0.527;exitDx=0;exitDy=0;exitPerimeter=0;" parent="AAjWyqTiXaKeaJ9iyk1k-9" edge="1">
          <mxGeometry relative="1" as="geometry">
            <Array as="points">
              <mxPoint x="-4" y="41" />
            </Array>
            <mxPoint x="-120" y="41.012" as="sourcePoint" />
            <mxPoint x="0.7999999999999545" y="40.80599999999998" as="targetPoint" />
          </mxGeometry>
        </mxCell>
        <mxCell id="AAjWyqTiXaKeaJ9iyk1k-20" value="1" style="edgeLabel;html=1;align=center;verticalAlign=middle;resizable=0;points=[];" parent="AAjWyqTiXaKeaJ9iyk1k-19" vertex="1" connectable="0">
          <mxGeometry x="0.7855" y="-1" relative="1" as="geometry">
            <mxPoint x="-11" y="-7" as="offset" />
          </mxGeometry>
        </mxCell>
        <mxCell id="AAjWyqTiXaKeaJ9iyk1k-21" value="*..1" style="edgeLabel;html=1;align=center;verticalAlign=middle;resizable=0;points=[];" parent="AAjWyqTiXaKeaJ9iyk1k-19" vertex="1" connectable="0">
          <mxGeometry x="-0.8094" y="-3" relative="1" as="geometry">
            <mxPoint x="12" y="-3" as="offset" />
          </mxGeometry>
        </mxCell>
        <mxCell id="AAjWyqTiXaKeaJ9iyk1k-22" value="Place" style="edgeLabel;html=1;align=center;verticalAlign=middle;resizable=0;points=[];" parent="AAjWyqTiXaKeaJ9iyk1k-19" vertex="1" connectable="0">
          <mxGeometry x="0.2004" y="1" relative="1" as="geometry">
            <mxPoint x="-18" as="offset" />
          </mxGeometry>
        </mxCell>
        <mxCell id="AAjWyqTiXaKeaJ9iyk1k-10" value="Digital identity platforms" style="text;align=left;verticalAlign=top;spacingLeft=4;spacingRight=4;overflow=hidden;rotatable=0;points=[[0,0.5],[1,0.5]];portConstraint=eastwest;rounded=0;shadow=0;html=0;" parent="AAjWyqTiXaKeaJ9iyk1k-9" vertex="1">
          <mxGeometry y="26" width="150" height="26" as="geometry" />
        </mxCell>
        <mxCell id="AAjWyqTiXaKeaJ9iyk1k-28" value="" style="line;html=1;strokeWidth=1;align=left;verticalAlign=middle;spacingTop=-1;spacingLeft=3;spacingRight=3;rotatable=0;labelPosition=right;points=[];portConstraint=eastwest;" parent="AAjWyqTiXaKeaJ9iyk1k-9" vertex="1">
          <mxGeometry y="52" width="150" height="11" as="geometry" />
        </mxCell>
        <mxCell id="AAjWyqTiXaKeaJ9iyk1k-18" value="Authentication" style="text;align=left;verticalAlign=top;spacingLeft=4;spacingRight=4;overflow=hidden;rotatable=0;points=[[0,0.5],[1,0.5]];portConstraint=eastwest;rounded=0;shadow=0;html=0;" parent="AAjWyqTiXaKeaJ9iyk1k-9" vertex="1">
          <mxGeometry y="63" width="150" height="26" as="geometry" />
        </mxCell>
      </root>
    </mxGraphModel>
  </diagram>
</mxfile>
